<?xml version="1.0" encoding="UTF-8"?>
<svg width="371" height="152" id="Calque_2" data-name="Calque 2" xmlns="http://www.w3.org/2000/svg" xmlns:xlink="http://www.w3.org/1999/xlink" viewBox="0 0 306.02 48">
  <defs>
    <style>
      .cls-1 {
        clip-path: url(#clippath);
      }

      .cls-2 {
        fill: none;
      }

      .cls-2, .cls-3, .cls-4, .cls-5, .cls-6, .cls-7, .cls-8, .cls-9, .cls-10, .cls-11, .cls-12, .cls-13, .cls-14, .cls-15, .cls-16, .cls-17, .cls-18, .cls-19, .cls-20, .cls-21, .cls-22, .cls-23, .cls-24, .cls-25, .cls-26, .cls-27, .cls-28, .cls-29, .cls-30, .cls-31, .cls-32, .cls-33, .cls-34, .cls-35, .cls-36, .cls-37, .cls-38, .cls-39, .cls-40, .cls-41, .cls-42, .cls-43, .cls-44, .cls-45, .cls-46, .cls-47, .cls-48, .cls-49, .cls-50, .cls-51, .cls-52, .cls-53, .cls-54, .cls-55, .cls-56, .cls-57, .cls-58, .cls-59, .cls-60, .cls-61, .cls-62, .cls-63, .cls-64, .cls-65, .cls-66, .cls-67, .cls-68, .cls-69, .cls-70, .cls-71, .cls-72, .cls-73, .cls-74, .cls-75, .cls-76, .cls-77, .cls-78, .cls-79, .cls-80, .cls-81, .cls-82, .cls-83, .cls-84, .cls-85, .cls-86, .cls-87, .cls-88, .cls-89, .cls-90, .cls-91, .cls-92, .cls-93, .cls-94, .cls-95, .cls-96, .cls-97, .cls-98, .cls-99, .cls-100, .cls-101, .cls-102, .cls-103, .cls-104, .cls-105, .cls-106, .cls-107, .cls-108, .cls-109, .cls-110, .cls-111, .cls-112, .cls-113, .cls-114, .cls-115, .cls-116, .cls-117, .cls-118, .cls-119, .cls-120, .cls-121, .cls-122, .cls-123, .cls-124, .cls-125, .cls-126, .cls-127, .cls-128, .cls-129, .cls-130, .cls-131, .cls-132, .cls-133, .cls-134, .cls-135, .cls-136, .cls-137, .cls-138, .cls-139, .cls-140, .cls-141, .cls-142, .cls-143, .cls-144, .cls-145, .cls-146, .cls-147, .cls-148, .cls-149, .cls-150, .cls-151, .cls-152, .cls-153, .cls-154, .cls-155, .cls-156, .cls-157, .cls-158, .cls-159, .cls-160, .cls-161, .cls-162, .cls-163, .cls-164, .cls-165, .cls-166, .cls-167, .cls-168, .cls-169, .cls-170, .cls-171, .cls-172, .cls-173, .cls-174, .cls-175, .cls-176, .cls-177, .cls-178, .cls-179, .cls-180, .cls-181, .cls-182, .cls-183, .cls-184, .cls-185, .cls-186, .cls-187, .cls-188, .cls-189, .cls-190, .cls-191, .cls-192, .cls-193, .cls-194, .cls-195, .cls-196, .cls-197, .cls-198, .cls-199, .cls-200, .cls-201, .cls-202, .cls-203, .cls-204, .cls-205, .cls-206, .cls-207, .cls-208, .cls-209, .cls-210, .cls-211, .cls-212, .cls-213, .cls-214, .cls-215, .cls-216, .cls-217, .cls-218, .cls-219, .cls-220, .cls-221, .cls-222, .cls-223, .cls-224, .cls-225, .cls-226, .cls-227, .cls-228, .cls-229, .cls-230, .cls-231, .cls-232, .cls-233, .cls-234, .cls-235, .cls-236, .cls-237, .cls-238, .cls-239, .cls-240, .cls-241, .cls-242, .cls-243, .cls-244, .cls-245, .cls-246, .cls-247, .cls-248, .cls-249, .cls-250, .cls-251, .cls-252, .cls-253, .cls-254, .cls-255, .cls-256, .cls-257, .cls-258, .cls-259, .cls-260, .cls-261, .cls-262, .cls-263, .cls-264, .cls-265, .cls-266, .cls-267, .cls-268, .cls-269, .cls-270, .cls-271, .cls-272, .cls-273, .cls-274, .cls-275, .cls-276, .cls-277, .cls-278, .cls-279, .cls-280, .cls-281, .cls-282, .cls-283, .cls-284 {
        stroke-width: 0px;
      }

      .cls-285 {
        stroke: #fff;
      }

      .cls-285, .cls-4, .cls-281 {
        fill: #fff;
      }

      .cls-3 {
        fill: #fefefe;
      }

      .cls-3, .cls-4 {
        fill-rule: evenodd;
      }

      .cls-5 {
        fill: #f6f7f9;
      }

      .cls-6 {
        fill: #274789;
      }

      .cls-7 {
        fill: #27488a;
      }

      .cls-8 {
        fill: #27498a;
      }

      .cls-9 {
        fill: #274a8b;
      }

      .cls-10 {
        fill: #274688;
      }

      .cls-11 {
        fill: #3079b6;
      }

      .cls-12 {
        fill: #3076b3;
      }

      .cls-13 {
        fill: #2557d6;
      }

      .cls-14 {
        fill: #4f4036;
      }

      .cls-15 {
        fill: #348ac4;
      }

      .cls-16 {
        fill: #2c63a2;
      }

      .cls-17 {
        fill: #348bc5;
      }

      .cls-18 {
        fill: #2c62a1;
      }

      .cls-19 {
        fill: #2c64a3;
      }

      .cls-20 {
        fill: #264183;
      }

      .cls-21 {
        fill: #2b5b9b;
      }

      .cls-22 {
        fill: #2b5c9c;
      }

      .cls-23 {
        fill: #2b5d9c;
      }

      .cls-24 {
        fill: #2c61a0;
      }

      .cls-25 {
        fill: #2c609f;
      }

      .cls-26 {
        fill: #284f90;
      }

      .cls-27 {
        fill: #2a5a9a;
      }

      .cls-28 {
        fill: #2a5898;
      }

      .cls-29 {
        fill: #2a5595;
      }

      .cls-30 {
        fill: #2a5696;
      }

      .cls-31 {
        fill: #2a5999;
      }

      .cls-32 {
        fill: #2a5797;
      }

      .cls-33 {
        fill: #2b5e9d;
      }

      .cls-34 {
        fill: #2b5f9e;
      }

      .cls-35 {
        fill: #295494;
      }

      .cls-36 {
        fill: #295393;
      }

      .cls-37 {
        fill: #295192;
      }

      .cls-38 {
        fill: #295293;
      }

      .cls-39 {
        fill: #295091;
      }

      .cls-40 {
        fill: #2b2b2b;
      }

      .cls-41 {
        fill: #284c8d;
      }

      .cls-42 {
        fill: #284d8e;
      }

      .cls-43 {
        fill: #284b8c;
      }

      .cls-44 {
        fill: #284e8f;
      }

      .cls-45 {
        fill: #3699d2;
      }

      .cls-46 {
        fill: #38a2da;
      }

      .cls-47 {
        fill: #389fd7;
      }

      .cls-48 {
        fill: #3695ce;
      }

      .cls-49 {
        fill: #3696cf;
      }

      .cls-50 {
        fill: #379ad3;
      }

      .cls-51 {
        fill: #3697d0;
      }

      .cls-52 {
        fill: #3698d1;
      }

      .cls-53 {
        fill: #3aaae1;
      }

      .cls-54 {
        fill: #39a9e0;
      }

      .cls-55 {
        fill: #38a0d8;
      }

      .cls-56 {
        fill: #39a5dd;
      }

      .cls-57 {
        fill: #38a1d9;
      }

      .cls-58 {
        fill: #39a6de;
      }

      .cls-59 {
        fill: #39a4dc;
      }

      .cls-60 {
        fill: #39a7de;
      }

      .cls-61 {
        fill: #39a8df;
      }

      .cls-62 {
        fill: #3bafe6;
      }

      .cls-63 {
        fill: #3bb0e7;
      }

      .cls-64 {
        fill: #3bb1e8;
      }

      .cls-65 {
        fill: #264385;
      }

      .cls-66 {
        fill: #264284;
      }

      .cls-67 {
        fill: #3bb2e8;
      }

      .cls-68 {
        fill: #3bb3e9;
      }

      .cls-69 {
        fill: #2d67a6;
      }

      .cls-70 {
        fill: #3385c0;
      }

      .cls-71 {
        fill: #3386c1;
      }

      .cls-72 {
        fill: #2d65a4;
      }

      .cls-73 {
        fill: #3388c2;
      }

      .cls-74 {
        fill: #3389c3;
      }

      .cls-75 {
        fill: #3387c2;
      }

      .cls-76 {
        fill: #264486;
      }

      .cls-77 {
        fill: #264587;
      }

      .cls-78 {
        fill: #2e6aa8;
      }

      .cls-79 {
        fill: #379bd4;
      }

      .cls-80 {
        fill: #379ed6;
      }

      .cls-81 {
        fill: #379dd5;
      }

      .cls-82 {
        fill: #38a3db;
      }

      .cls-83 {
        fill: #379cd5;
      }

      .cls-84 {
        fill: #2d66a5;
      }

      .cls-85 {
        fill: #2d69a7;
      }

      .cls-86 {
        fill: #2e6eac;
      }

      .cls-87 {
        fill: #2d68a6;
      }

      .cls-88 {
        fill: #3aaee5;
      }

      .cls-89 {
        fill: #3aade4;
      }

      .cls-90 {
        fill: #3ab54a;
      }

      .cls-91 {
        fill: #3aace3;
      }

      .cls-92 {
        fill: #3aabe2;
      }

      .cls-93 {
        fill: #2e6dab;
      }

      .cls-94 {
        fill: #2e6caa;
      }

      .cls-95 {
        fill: #2e6ba9;
      }

      .cls-96 {
        fill: #3dbbaa;
      }

      .cls-97 {
        fill: #3dbba8;
      }

      .cls-98 {
        fill: #3dbba6;
      }

      .cls-99 {
        fill: #3dbba9;
      }

      .cls-100 {
        fill: #3dbba7;
      }

      .cls-101 {
        fill: #3dbaf0;
      }

      .cls-102 {
        fill: #3cb794;
      }

      .cls-103 {
        fill: #3cb792;
      }

      .cls-104 {
        fill: #3cb7ed;
      }

      .cls-105 {
        fill: #3dbbf1;
      }

      .cls-106 {
        fill: #3cb6ec;
      }

      .cls-107 {
        fill: #3cb99b;
      }

      .cls-108 {
        fill: #3cb99d;
      }

      .cls-109 {
        fill: #3cb99e;
      }

      .cls-110 {
        fill: #3cb99f;
      }

      .cls-111 {
        fill: #3cb99c;
      }

      .cls-112 {
        fill: #3cb793;
      }

      .cls-113 {
        fill: #3cb8ee;
      }

      .cls-114 {
        fill: #3cb899;
      }

      .cls-115 {
        fill: #3cb89a;
      }

      .cls-116 {
        fill: #3cb895;
      }

      .cls-117 {
        fill: #3cb897;
      }

      .cls-118 {
        fill: #3cb898;
      }

      .cls-119 {
        fill: #3cb896;
      }

      .cls-120 {
        fill: #3cb5eb;
      }

      .cls-121 {
        fill: #3cb4ea;
      }

      .cls-122 {
        fill: #3dbeb9;
      }

      .cls-123 {
        fill: #3dbeb7;
      }

      .cls-124 {
        fill: #3dbeb8;
      }

      .cls-125 {
        fill: #3dbeba;
      }

      .cls-126 {
        fill: #3dbeb6;
      }

      .cls-127 {
        fill: #3dbba5;
      }

      .cls-128 {
        fill: #3dbcf1;
      }

      .cls-129 {
        fill: #3dbdb5;
      }

      .cls-130 {
        fill: #3dbdb3;
      }

      .cls-131 {
        fill: #3dbdb2;
      }

      .cls-132 {
        fill: #3dbdf2;
      }

      .cls-133 {
        fill: #3dbcac;
      }

      .cls-134 {
        fill: #3dbcab;
      }

      .cls-135 {
        fill: #3dbcad;
      }

      .cls-136 {
        fill: #3dbdb4;
      }

      .cls-137 {
        fill: #3dbdb1;
      }

      .cls-138 {
        fill: #3dbaa4;
      }

      .cls-139 {
        fill: #3dbaa3;
      }

      .cls-140 {
        fill: #3dbaa2;
      }

      .cls-141 {
        fill: #3dbcae;
      }

      .cls-142 {
        fill: #3dbcaf;
      }

      .cls-143 {
        fill: #3dbaa1;
      }

      .cls-144 {
        fill: #3dbaa0;
      }

      .cls-145 {
        fill: #3db9ef;
      }

      .cls-146 {
        fill: #3591cb;
      }

      .cls-147 {
        fill: #3590ca;
      }

      .cls-148 {
        fill: #3593cc;
      }

      .cls-149 {
        fill: #3594cd;
      }

      .cls-150 {
        fill: #348fc9;
      }

      .cls-151 {
        fill: #348cc6;
      }

      .cls-152 {
        fill: #348dc7;
      }

      .cls-153 {
        fill: #348ec8;
      }

      .cls-154 {
        fill: #3592cb;
      }

      .cls-155 {
        fill: #3fc6e3;
      }

      .cls-156 {
        fill: #3fc6e5;
      }

      .cls-157 {
        fill: #3fc6e2;
      }

      .cls-158 {
        fill: #3fc6e4;
      }

      .cls-159 {
        fill: #3fc7fb;
      }

      .cls-160 {
        fill: #3fc6e6;
      }

      .cls-161 {
        fill: #3fc5e1;
      }

      .cls-162 {
        fill: #3fc5df;
      }

      .cls-163 {
        fill: #3fc5e0;
      }

      .cls-164 {
        fill: #3fc5dd;
      }

      .cls-165 {
        fill: #3fc5dc;
      }

      .cls-166 {
        fill: #3fc5de;
      }

      .cls-167 {
        fill: #3fc5fa;
      }

      .cls-168 {
        fill: #3fc6fa;
      }

      .cls-169 {
        fill: #3fc7eb;
      }

      .cls-170 {
        fill: #3fc7ec;
      }

      .cls-171 {
        fill: #3fc4f9;
      }

      .cls-172 {
        fill: #3fc7e9;
      }

      .cls-173 {
        fill: #3fc7e7;
      }

      .cls-174 {
        fill: #3fc7ea;
      }

      .cls-175 {
        fill: #3fc7e8;
      }

      .cls-176 {
        fill: #3fc4d7;
      }

      .cls-177 {
        fill: #3fc4d8;
      }

      .cls-178 {
        fill: #3fc4db;
      }

      .cls-179 {
        fill: #3fc8ed;
      }

      .cls-180 {
        fill: #3fc8f0;
      }

      .cls-181 {
        fill: #3fc8f1;
      }

      .cls-182 {
        fill: #3fc4d9;
      }

      .cls-183 {
        fill: #3fc4da;
      }

      .cls-184 {
        fill: #3fc8ef;
      }

      .cls-185 {
        fill: #3fc8fc;
      }

      .cls-186 {
        fill: #3fc8ee;
      }

      .cls-187 {
        fill: #3ec0f5;
      }

      .cls-188 {
        fill: #3ec0c3;
      }

      .cls-189 {
        fill: #3ec0c4;
      }

      .cls-190 {
        fill: #3ec0c5;
      }

      .cls-191 {
        fill: #3ec0c0;
      }

      .cls-192 {
        fill: #3ec0c1;
      }

      .cls-193 {
        fill: #3ec0c2;
      }

      .cls-194 {
        fill: #3ebef3;
      }

      .cls-195 {
        fill: #3ec1c7;
      }

      .cls-196 {
        fill: #3ec1c6;
      }

      .cls-197 {
        fill: #3ec1cb;
      }

      .cls-198 {
        fill: #3ec1c9;
      }

      .cls-199 {
        fill: #3ec1ca;
      }

      .cls-200 {
        fill: #3ec3d2;
      }

      .cls-201 {
        fill: #3ec3d3;
      }

      .cls-202 {
        fill: #3ec3d4;
      }

      .cls-203 {
        fill: #3ec3d6;
      }

      .cls-204 {
        fill: #3ec3d5;
      }

      .cls-205 {
        fill: #3ec2ce;
      }

      .cls-206 {
        fill: #3ec3f8;
      }

      .cls-207 {
        fill: #3ec2cd;
      }

      .cls-208 {
        fill: #3ec2cf;
      }

      .cls-209 {
        fill: #3ec2cc;
      }

      .cls-210 {
        fill: #3ec2d1;
      }

      .cls-211 {
        fill: #3ec2d0;
      }

      .cls-212 {
        fill: #3ec1f6;
      }

      .cls-213 {
        fill: #3ec2f7;
      }

      .cls-214 {
        fill: #3ebff4;
      }

      .cls-215 {
        fill: #3ebfbb;
      }

      .cls-216 {
        fill: #3ebfbd;
      }

      .cls-217 {
        fill: #3ebfbe;
      }

      .cls-218 {
        fill: #3ebfbc;
      }

      .cls-219 {
        fill: #3ebfbf;
      }

      .cls-220 {
        fill: #40caf9;
      }

      .cls-221 {
        fill: #40cafe;
      }

      .cls-222 {
        fill: #40cafa;
      }

      .cls-223 {
        fill: #40cafb;
      }

      .cls-224 {
        fill: #40cafc;
      }

      .cls-225 {
        fill: #40cbff;
      }

      .cls-226 {
        fill: #40c9fd;
      }

      .cls-227 {
        fill: #40c9f6;
      }

      .cls-228 {
        fill: #40c9f5;
      }

      .cls-229 {
        fill: #40c9f2;
      }

      .cls-230 {
        fill: #40c9f4;
      }

      .cls-231 {
        fill: #40c9f3;
      }

      .cls-232 {
        fill: #40cbfd;
      }

      .cls-233 {
        fill: #40cbfe;
      }

      .cls-234 {
        fill: #40caf7;
      }

      .cls-235 {
        fill: #40caf8;
      }

      .cls-236 {
        fill: #233175;
      }

      .cls-237 {
        fill: #233276;
      }

      .cls-238 {
        fill: #233377;
      }

      .cls-239 {
        fill: #233578;
      }

      .cls-240 {
        fill: #243a7d;
      }

      .cls-241 {
        fill: #24387b;
      }

      .cls-242 {
        fill: #243679;
      }

      .cls-243 {
        fill: #24397c;
      }

      .cls-244 {
        fill: #222e72;
      }

      .cls-245 {
        fill: #222f5a;
      }

      .cls-246 {
        fill: #24377a;
      }

      .cls-247 {
        fill: #222f73;
      }

      .cls-248 {
        fill: #233477;
      }

      .cls-249 {
        fill: #223074;
      }

      .cls-250 {
        fill: #254082;
      }

      .cls-251 {
        fill: #253e80;
      }

      .cls-252 {
        fill: #253f81;
      }

      .cls-253 {
        fill: #253c7f;
      }

      .cls-254 {
        fill: #253d80;
      }

      .cls-255 {
        fill: #253b7e;
      }

      .cls-256 {
        fill: #2f70ae;
      }

      .cls-257 {
        fill: #317fba;
      }

      .cls-258 {
        fill: #317eb9;
      }

      .cls-259 {
        fill: #317db9;
      }

      .cls-260 {
        fill: #3284bf;
      }

      .cls-261 {
        fill: #3281bc;
      }

      .cls-262 {
        fill: #317ab7;
      }

      .cls-263 {
        fill: #317bb8;
      }

      .cls-264 {
        fill: #328c53;
      }

      .cls-265 {
        fill: #3280bb;
      }

      .cls-266 {
        fill: #3282bd;
      }

      .cls-267 {
        fill: #3283be;
      }

      .cls-268 {
        fill: #3075b2;
      }

      .cls-269 {
        fill: #2f72af;
      }

      .cls-270 {
        fill: #2f71af;
      }

      .cls-271 {
        fill: #2f74b1;
      }

      .cls-272 {
        fill: #2f73b0;
      }

      .cls-273 {
        fill: #2f6fad;
      }

      .cls-274 {
        fill: #3077b4;
      }

      .cls-275 {
        fill: #3078b5;
      }

      .cls-276 {
        fill: #ff5f00;
      }

      .cls-277 {
        fill: #fdec6c;
      }

      .cls-278 {
        fill: #fed245;
      }

      .cls-279 {
        fill: #6b7280;
      }

      .cls-280 {
        fill: #f1f1f1;
      }

      .cls-282 {
        fill: #ffda00;
      }

      .cls-283 {
        fill: #e9001b;
      }

      .cls-284 {
        fill: #f59c1b;
      }
    </style>
    <clipPath id="clippath">
      <rect class="cls-2" x="182.5" y="14.76" width="27.02" height="18.49" rx="1.19" ry="1.19"/>
    </clipPath>
  </defs>
  <g id="Calque_1-2" data-name="Calque 1">
    <g>
      <path class="cls-4" d="m306.02,24c0,13.25-10.75,24-24,24s-24-10.75-24-24S268.76,0,282.02,0s24,10.75,24,24Zm-24,21.54c11.9,0,21.54-9.64,21.54-21.54s-9.64-21.54-21.54-21.54-21.54,9.64-21.54,21.54,9.64,21.54,21.54,21.54Z"/>
      <g>
        <path class="cls-4" d="m282.02,45.54c11.9,0,21.54-9.64,21.54-21.54s-9.64-21.54-21.54-21.54-21.54,9.64-21.54,21.54,9.64,21.54,21.54,21.54Z"/>
        <path class="cls-279" d="m304.22,24c0,12.26-9.94,22.2-22.2,22.2s-22.2-9.94-22.2-22.2,9.94-22.2,22.2-22.2,22.2,9.94,22.2,22.2Z"/>
        <g>
          <path class="cls-281" d="m283.02,18h10c.42,0,.8-.27.94-.67.14-.4.01-.85-.32-1.11l-5-4c-.37-.29-.88-.29-1.25,0l-5,4c-.33.27-.46.71-.32,1.11.14.4.52.67.94.67Zm5-3.72l2.15,1.72h-4.3l2.15-1.72Z"/>
          <path class="cls-281" d="m294.02,21v-2h-12v2h1v2h-1v2h12v-2h-1v-2h1Zm-9,0h2v2h-2v-2Zm6,2h-2v-2h2v2Z"/>
          <path class="cls-281" d="m271.02,29h10c.42,0,.8-.27.94-.67.14-.4.01-.85-.32-1.11l-5-4c-.36-.29-.89-.29-1.25,0l-5,4c-.33.27-.46.71-.32,1.11.14.4.52.67.94.67Zm5-3.72l2.15,1.72h-4.3l2.15-1.72Z"/>
          <path class="cls-281" d="m270.02,32h1v2h-1v2h12v-2h-1v-2h1v-2h-12v2Zm3,0h2v2h-2v-2Zm6,2h-2v-2h2v2Z"/>
          <path class="cls-281" d="m275.02,22l3-3h-2v-3h3v2l3-3-3-3v2h-4c-.55,0-1,.45-1,1v4h-2l3,3Z"/>
        </g>
      </g>
    </g>
    <g>
      <path class="cls-4" d="m263.01,24c0,13.25-10.75,24-24,24s-24-10.75-24-24S225.76,0,239.01,0s24,10.75,24,24Zm-24,21.54c11.9,0,21.54-9.64,21.54-21.54s-9.64-21.54-21.54-21.54-21.54,9.64-21.54,21.54,9.64,21.54,21.54,21.54Z"/>
      <g>
        <path class="cls-4" d="m239.01,45.54c11.9,0,21.54-9.64,21.54-21.54s-9.64-21.54-21.54-21.54-21.54,9.64-21.54,21.54,9.64,21.54,21.54,21.54Z"/>
        <path class="cls-279" d="m261.21,24c0,12.26-9.94,22.2-22.2,22.2s-22.2-9.94-22.2-22.2S226.75,1.8,239.01,1.8s22.2,9.94,22.2,22.2Z"/>
        <g>
          <path class="cls-285" d="m246.14,24.34l2-12.16h1.19l-2,12.16h-1.19Zm-5.53-3.37l.19-1.19h9.07l-.19,1.19h-9.07Zm1.26,3.37l2-12.16h1.19l-2,12.16h-1.19Zm-.55-7.6l.19-1.19h9.07l-.19,1.19h-9.07Z"/>
          <path class="cls-281" d="m231.62,23.58l.15-4.06-3.44,2.18-.89-1.55,3.62-1.88-3.62-1.88.89-1.55,3.44,2.18-.15-4.06h1.77l-.15,4.06,3.44-2.18.89,1.55-3.62,1.88,3.62,1.88-.89,1.55-3.44-2.18.15,4.06h-1.77Z"/>
          <path class="cls-281" d="m231.94,29.66h1.29v3.95c0,.44-.11.83-.32,1.16-.21.33-.5.59-.88.78-.38.18-.82.28-1.32.28s-.95-.09-1.32-.28c-.38-.19-.67-.45-.88-.78s-.31-.72-.31-1.16v-3.95h1.29v3.84c0,.23.05.44.15.62.1.18.25.32.43.42.19.1.4.15.65.15s.47-.05.65-.15c.19-.1.33-.24.43-.42.1-.18.15-.39.15-.62v-3.84Zm5.64,1.75c-.02-.24-.13-.43-.31-.56-.18-.13-.42-.2-.73-.2-.21,0-.39.03-.53.09-.14.06-.26.14-.33.24-.08.1-.11.22-.11.35,0,.11.02.2.07.29.05.08.12.15.21.21.09.06.19.11.31.15.12.04.24.08.37.11l.55.13c.27.06.51.14.73.24.22.1.41.22.58.37.16.14.29.31.38.51.09.2.14.42.14.67,0,.37-.1.69-.29.97-.19.27-.46.48-.81.63-.35.15-.77.22-1.27.22s-.92-.08-1.28-.23c-.36-.15-.65-.37-.85-.67-.2-.3-.31-.66-.32-1.1h1.24c.01.2.07.37.18.51.1.13.24.24.42.31.18.07.38.1.6.1s.41-.03.57-.1c.16-.06.29-.15.38-.26.09-.11.13-.24.13-.39,0-.14-.04-.25-.12-.34-.08-.09-.2-.17-.35-.24-.15-.07-.34-.12-.56-.18l-.66-.17c-.51-.12-.92-.32-1.21-.58-.3-.27-.44-.62-.44-1.07,0-.37.1-.69.29-.96.2-.28.47-.49.82-.64.35-.15.74-.23,1.19-.23s.85.08,1.18.23c.34.15.6.37.79.64.19.28.29.59.29.96h-1.23Zm5.48,0c-.02-.24-.13-.43-.31-.56-.18-.13-.42-.2-.73-.2-.21,0-.39.03-.53.09-.14.06-.26.14-.33.24-.08.1-.11.22-.11.35,0,.11.02.2.07.29.05.08.12.15.21.21.09.06.19.11.31.15.12.04.24.08.37.11l.55.13c.27.06.51.14.73.24.22.1.41.22.58.37.16.14.29.31.38.51.09.2.14.42.14.67,0,.37-.1.69-.29.97-.19.27-.46.48-.81.63-.35.15-.77.22-1.27.22s-.92-.08-1.28-.23c-.36-.15-.65-.37-.85-.67-.2-.3-.31-.66-.32-1.1h1.24c.01.2.07.37.18.51.1.13.24.24.42.31.18.07.38.1.6.1s.41-.03.57-.1c.16-.06.29-.15.38-.26.09-.11.13-.24.13-.39,0-.14-.04-.25-.12-.34-.08-.09-.2-.17-.35-.24-.15-.07-.34-.12-.56-.18l-.66-.17c-.51-.12-.92-.32-1.21-.58-.3-.27-.44-.62-.44-1.07,0-.37.1-.69.29-.96.2-.28.47-.49.82-.64.35-.15.74-.23,1.19-.23s.85.08,1.18.23c.34.15.6.37.79.64.19.28.29.59.29.96h-1.23Zm4.34,4.33h-2.16v-6.08h2.17c.61,0,1.14.12,1.58.37.44.24.78.59,1.02,1.04.24.45.36,1,.36,1.63s-.12,1.18-.36,1.63c-.24.46-.58.8-1.02,1.05-.44.24-.97.37-1.59.37Zm-.87-1.1h.82c.38,0,.7-.07.96-.2.26-.14.46-.35.59-.63.13-.29.2-.66.2-1.11s-.07-.82-.2-1.1c-.13-.29-.33-.49-.58-.63-.26-.13-.58-.2-.96-.2h-.82v3.88Z"/>
        </g>
      </g>
    </g>
    <g>
      <path class="cls-4" d="m220.01,24c0,13.25-10.75,24-24,24s-24-10.75-24-24S182.76,0,196.01,0s24,10.75,24,24Zm-24,21.54c11.9,0,21.54-9.64,21.54-21.54s-9.64-21.54-21.54-21.54-21.54,9.64-21.54,21.54,9.64,21.54,21.54,21.54Z"/>
      <path class="cls-5" d="m218.21,24c0,12.26-9.94,22.2-22.2,22.2s-22.2-9.94-22.2-22.2S183.75,1.8,196.01,1.8s22.2,9.94,22.2,22.2Z"/>
      <g>
        <g>
          <g class="cls-1">
            <polygon class="cls-244" points="209.52 18.57 197.82 14.76 209.52 14.76 209.52 18.57"/>
            <polygon class="cls-244" points="209.52 18.65 197.56 14.76 197.82 14.76 209.52 18.57 209.52 18.65"/>
            <polygon class="cls-247" points="209.52 18.74 197.29 14.76 197.56 14.76 209.52 18.65 209.52 18.74"/>
            <polygon class="cls-249" points="209.52 18.82 197.03 14.76 197.29 14.76 209.52 18.74 209.52 18.82"/>
            <polygon class="cls-236" points="209.52 18.91 196.77 14.76 197.03 14.76 209.52 18.82 209.52 18.91"/>
            <polygon class="cls-237" points="209.52 19 196.51 14.76 196.77 14.76 209.52 18.91 209.52 19"/>
            <polygon class="cls-238" points="209.52 19.08 196.24 14.76 196.51 14.76 209.52 19 209.52 19.08"/>
            <polygon class="cls-248" points="209.52 19.17 195.98 14.76 196.24 14.76 209.52 19.08 209.52 19.17"/>
            <polygon class="cls-239" points="209.52 19.25 195.72 14.76 195.98 14.76 209.52 19.17 209.52 19.25"/>
            <polygon class="cls-242" points="209.52 19.34 195.46 14.76 195.72 14.76 209.52 19.25 209.52 19.34"/>
            <polygon class="cls-246" points="209.52 19.42 195.19 14.76 195.46 14.76 209.52 19.34 209.52 19.42"/>
            <polygon class="cls-241" points="209.52 19.51 194.93 14.76 195.19 14.76 209.52 19.42 209.52 19.51"/>
            <polygon class="cls-243" points="209.52 19.59 194.67 14.76 194.93 14.76 209.52 19.51 209.52 19.59"/>
            <polygon class="cls-240" points="209.52 19.68 194.41 14.76 194.67 14.76 209.52 19.59 209.52 19.68"/>
            <polygon class="cls-255" points="209.52 19.77 194.15 14.76 194.41 14.76 209.52 19.68 209.52 19.77"/>
            <polygon class="cls-253" points="209.52 19.85 193.88 14.76 194.15 14.76 209.52 19.77 209.52 19.85"/>
            <polygon class="cls-254" points="209.52 19.94 193.62 14.76 193.88 14.76 209.52 19.85 209.52 19.94"/>
            <polygon class="cls-251" points="209.52 20.02 193.36 14.76 193.62 14.76 209.52 19.94 209.52 20.02"/>
            <polygon class="cls-252" points="209.52 20.11 193.1 14.76 193.36 14.76 209.52 20.02 209.52 20.11"/>
            <polygon class="cls-250" points="209.52 20.19 192.83 14.76 193.1 14.76 209.52 20.11 209.52 20.19"/>
            <polygon class="cls-20" points="209.52 20.28 192.57 14.76 192.83 14.76 209.52 20.19 209.52 20.28"/>
            <polygon class="cls-66" points="209.52 20.36 192.31 14.76 192.57 14.76 209.52 20.28 209.52 20.36"/>
            <polygon class="cls-65" points="209.52 20.45 192.05 14.76 192.31 14.76 209.52 20.36 209.52 20.45"/>
            <polygon class="cls-76" points="209.52 20.53 191.78 14.76 192.05 14.76 209.52 20.45 209.52 20.53"/>
            <polygon class="cls-77" points="209.52 20.62 191.52 14.76 191.78 14.76 209.52 20.53 209.52 20.62"/>
            <polygon class="cls-10" points="209.52 20.71 191.26 14.76 191.52 14.76 209.52 20.62 209.52 20.71"/>
            <polygon class="cls-6" points="209.52 20.79 191 14.76 191.26 14.76 209.52 20.71 209.52 20.79"/>
            <polygon class="cls-7" points="209.52 20.88 190.73 14.76 191 14.76 209.52 20.79 209.52 20.88"/>
            <polygon class="cls-8" points="209.52 20.96 190.47 14.76 190.73 14.76 209.52 20.88 209.52 20.96"/>
            <polygon class="cls-9" points="209.52 21.05 190.21 14.76 190.47 14.76 209.52 20.96 209.52 21.05"/>
            <polygon class="cls-43" points="209.52 21.13 189.95 14.76 190.21 14.76 209.52 21.05 209.52 21.13"/>
            <polygon class="cls-41" points="209.52 21.22 189.68 14.76 189.95 14.76 209.52 21.13 209.52 21.22"/>
            <polygon class="cls-42" points="209.52 21.3 189.42 14.76 189.68 14.76 209.52 21.22 209.52 21.3"/>
            <polygon class="cls-44" points="209.52 21.39 189.16 14.76 189.42 14.76 209.52 21.3 209.52 21.39"/>
            <polygon class="cls-26" points="209.52 21.47 188.9 14.76 189.16 14.76 209.52 21.39 209.52 21.47"/>
            <polygon class="cls-39" points="209.52 21.56 188.63 14.76 188.9 14.76 209.52 21.47 209.52 21.56"/>
            <polygon class="cls-37" points="209.52 21.65 188.37 14.76 188.63 14.76 209.52 21.56 209.52 21.65"/>
            <polygon class="cls-38" points="209.52 21.73 188.11 14.76 188.37 14.76 209.52 21.65 209.52 21.73"/>
            <polygon class="cls-36" points="209.52 21.82 187.85 14.76 188.11 14.76 209.52 21.73 209.52 21.82"/>
            <polygon class="cls-35" points="209.52 21.9 187.58 14.76 187.85 14.76 209.52 21.82 209.52 21.9"/>
            <polygon class="cls-29" points="209.52 21.99 187.32 14.76 187.58 14.76 209.52 21.9 209.52 21.99"/>
            <polygon class="cls-30" points="209.52 22.07 187.06 14.76 187.32 14.76 209.52 21.99 209.52 22.07"/>
            <polygon class="cls-32" points="209.52 22.16 186.8 14.76 187.06 14.76 209.52 22.07 209.52 22.16"/>
            <polygon class="cls-28" points="209.52 22.24 186.53 14.76 186.8 14.76 209.52 22.16 209.52 22.24"/>
            <polygon class="cls-31" points="209.52 22.33 186.27 14.76 186.53 14.76 209.52 22.24 209.52 22.33"/>
            <polygon class="cls-27" points="209.52 22.42 186.01 14.76 186.27 14.76 209.52 22.33 209.52 22.42"/>
            <polygon class="cls-21" points="209.52 22.5 185.75 14.76 186.01 14.76 209.52 22.42 209.52 22.5"/>
            <polygon class="cls-22" points="209.52 22.59 185.48 14.76 185.75 14.76 209.52 22.5 209.52 22.59"/>
            <polygon class="cls-23" points="209.52 22.67 185.22 14.76 185.48 14.76 209.52 22.59 209.52 22.67"/>
            <polygon class="cls-33" points="209.52 22.76 184.96 14.76 185.22 14.76 209.52 22.67 209.52 22.76"/>
            <polygon class="cls-34" points="209.52 22.84 184.7 14.76 184.96 14.76 209.52 22.76 209.52 22.84"/>
            <polygon class="cls-25" points="209.52 22.93 184.43 14.76 184.7 14.76 209.52 22.84 209.52 22.93"/>
            <polygon class="cls-24" points="209.52 23.01 184.17 14.76 184.43 14.76 209.52 22.93 209.52 23.01"/>
            <polygon class="cls-18" points="209.52 23.1 183.91 14.76 184.17 14.76 209.52 23.01 209.52 23.1"/>
            <polygon class="cls-16" points="209.52 23.18 183.65 14.76 183.91 14.76 209.52 23.1 209.52 23.18"/>
            <polygon class="cls-19" points="209.52 23.27 183.38 14.76 183.65 14.76 209.52 23.18 209.52 23.27"/>
            <polygon class="cls-72" points="209.52 23.36 183.12 14.76 183.38 14.76 209.52 23.27 209.52 23.36"/>
            <polygon class="cls-84" points="209.52 23.44 182.86 14.76 183.12 14.76 209.52 23.36 209.52 23.44"/>
            <polygon class="cls-69" points="209.52 23.53 182.6 14.76 182.86 14.76 209.52 23.44 209.52 23.53"/>
            <polygon class="cls-87" points="209.52 23.61 182.5 14.81 182.5 14.76 182.6 14.76 209.52 23.53 209.52 23.61"/>
            <polygon class="cls-85" points="209.52 23.7 182.5 14.9 182.5 14.81 209.52 23.61 209.52 23.7"/>
            <polygon class="cls-78" points="209.52 23.78 182.5 14.98 182.5 14.9 209.52 23.7 209.52 23.78"/>
            <polygon class="cls-95" points="209.52 23.87 182.5 15.07 182.5 14.98 209.52 23.78 209.52 23.87"/>
            <polygon class="cls-94" points="209.52 23.95 182.5 15.15 182.5 15.07 209.52 23.87 209.52 23.95"/>
            <polygon class="cls-93" points="209.52 24.04 182.5 15.24 182.5 15.15 209.52 23.95 209.52 24.04"/>
            <polygon class="cls-86" points="209.52 24.13 182.5 15.32 182.5 15.24 209.52 24.04 209.52 24.13"/>
            <polygon class="cls-273" points="209.52 24.21 182.5 15.41 182.5 15.32 209.52 24.13 209.52 24.21"/>
            <polygon class="cls-256" points="209.52 24.3 182.5 15.49 182.5 15.41 209.52 24.21 209.52 24.3"/>
            <polygon class="cls-270" points="209.52 24.38 182.5 15.58 182.5 15.49 209.52 24.3 209.52 24.38"/>
            <polygon class="cls-269" points="209.52 24.47 182.5 15.67 182.5 15.58 209.52 24.38 209.52 24.47"/>
            <polygon class="cls-272" points="209.52 24.55 182.5 15.75 182.5 15.67 209.52 24.47 209.52 24.55"/>
            <polygon class="cls-271" points="209.52 24.64 182.5 15.84 182.5 15.75 209.52 24.55 209.52 24.64"/>
            <polygon class="cls-268" points="209.52 24.72 182.5 15.92 182.5 15.84 209.52 24.64 209.52 24.72"/>
            <polygon class="cls-12" points="209.52 24.81 182.5 16.01 182.5 15.92 209.52 24.72 209.52 24.81"/>
            <polygon class="cls-274" points="209.52 24.89 182.5 16.09 182.5 16.01 209.52 24.81 209.52 24.89"/>
            <polygon class="cls-275" points="209.52 24.98 182.5 16.18 182.5 16.09 209.52 24.89 209.52 24.98"/>
            <polygon class="cls-11" points="209.52 25.07 182.5 16.26 182.5 16.18 209.52 24.98 209.52 25.07"/>
            <polygon class="cls-262" points="209.52 25.15 182.5 16.35 182.5 16.26 209.52 25.07 209.52 25.15"/>
            <polygon class="cls-263" points="209.52 25.24 182.5 16.44 182.5 16.35 209.52 25.15 209.52 25.24"/>
            <polygon class="cls-259" points="209.52 25.32 182.5 16.52 182.5 16.44 209.52 25.24 209.52 25.32"/>
            <polygon class="cls-258" points="209.52 25.41 182.5 16.61 182.5 16.52 209.52 25.32 209.52 25.41"/>
            <polygon class="cls-257" points="209.52 25.49 182.5 16.69 182.5 16.61 209.52 25.41 209.52 25.49"/>
            <polygon class="cls-265" points="209.52 25.58 182.5 16.78 182.5 16.69 209.52 25.49 209.52 25.58"/>
            <polygon class="cls-261" points="209.52 25.66 182.5 16.86 182.5 16.78 209.52 25.58 209.52 25.66"/>
            <polygon class="cls-266" points="209.52 25.75 182.5 16.95 182.5 16.86 209.52 25.66 209.52 25.75"/>
            <polygon class="cls-267" points="209.52 25.84 182.5 17.03 182.5 16.95 209.52 25.75 209.52 25.84"/>
            <polygon class="cls-260" points="209.52 25.92 182.5 17.12 182.5 17.03 209.52 25.84 209.52 25.92"/>
            <polygon class="cls-70" points="209.52 26.01 182.5 17.2 182.5 17.12 209.52 25.92 209.52 26.01"/>
            <polygon class="cls-71" points="209.52 26.09 182.5 17.29 182.5 17.2 209.52 26.01 209.52 26.09"/>
            <polygon class="cls-75" points="209.52 26.18 182.5 17.38 182.5 17.29 209.52 26.09 209.52 26.18"/>
            <polygon class="cls-73" points="209.52 26.26 182.5 17.46 182.5 17.38 209.52 26.18 209.52 26.26"/>
            <polygon class="cls-74" points="209.52 26.35 182.5 17.55 182.5 17.46 209.52 26.26 209.52 26.35"/>
            <polygon class="cls-15" points="209.52 26.43 182.5 17.63 182.5 17.55 209.52 26.35 209.52 26.43"/>
            <polygon class="cls-17" points="209.52 26.52 182.5 17.72 182.5 17.63 209.52 26.43 209.52 26.52"/>
            <polygon class="cls-151" points="209.52 26.6 182.5 17.8 182.5 17.72 209.52 26.52 209.52 26.6"/>
            <polygon class="cls-152" points="209.52 26.69 182.5 17.89 182.5 17.8 209.52 26.6 209.52 26.69"/>
            <polygon class="cls-153" points="209.52 26.78 182.5 17.97 182.5 17.89 209.52 26.69 209.52 26.78"/>
            <polygon class="cls-150" points="209.52 26.86 182.5 18.06 182.5 17.97 209.52 26.78 209.52 26.86"/>
            <polygon class="cls-147" points="209.52 26.95 182.5 18.15 182.5 18.06 209.52 26.86 209.52 26.95"/>
            <polygon class="cls-146" points="209.52 27.03 182.5 18.23 182.5 18.15 209.52 26.95 209.52 27.03"/>
            <polygon class="cls-154" points="209.52 27.12 182.5 18.32 182.5 18.23 209.52 27.03 209.52 27.12"/>
            <polygon class="cls-148" points="209.52 27.2 182.5 18.4 182.5 18.32 209.52 27.12 209.52 27.2"/>
            <polygon class="cls-149" points="209.52 27.29 182.5 18.49 182.5 18.4 209.52 27.2 209.52 27.29"/>
            <polygon class="cls-48" points="209.52 27.37 182.5 18.57 182.5 18.49 209.52 27.29 209.52 27.37"/>
            <polygon class="cls-49" points="209.52 27.46 182.5 18.66 182.5 18.57 209.52 27.37 209.52 27.46"/>
            <polygon class="cls-51" points="209.52 27.55 182.5 18.74 182.5 18.66 209.52 27.46 209.52 27.55"/>
            <polygon class="cls-52" points="209.52 27.63 182.5 18.83 182.5 18.74 209.52 27.55 209.52 27.63"/>
            <polygon class="cls-45" points="209.52 27.72 182.5 18.91 182.5 18.83 209.52 27.63 209.52 27.72"/>
            <polygon class="cls-50" points="209.52 27.8 182.5 19 182.5 18.91 209.52 27.72 209.52 27.8"/>
            <polygon class="cls-79" points="209.52 27.89 182.5 19.09 182.5 19 209.52 27.8 209.52 27.89"/>
            <polygon class="cls-83" points="209.52 27.97 182.5 19.17 182.5 19.09 209.52 27.89 209.52 27.97"/>
            <polygon class="cls-81" points="209.52 28.06 182.5 19.26 182.5 19.17 209.52 27.97 209.52 28.06"/>
            <polygon class="cls-80" points="209.52 28.14 182.5 19.34 182.5 19.26 209.52 28.06 209.52 28.14"/>
            <polygon class="cls-47" points="209.52 28.23 182.5 19.43 182.5 19.34 209.52 28.14 209.52 28.23"/>
            <polygon class="cls-55" points="209.52 28.31 182.5 19.51 182.5 19.43 209.52 28.23 209.52 28.31"/>
            <polygon class="cls-57" points="209.52 28.4 182.5 19.6 182.5 19.51 209.52 28.31 209.52 28.4"/>
            <polygon class="cls-46" points="209.52 28.49 182.5 19.68 182.5 19.6 209.52 28.4 209.52 28.49"/>
            <polygon class="cls-82" points="209.52 28.57 182.5 19.77 182.5 19.68 209.52 28.49 209.52 28.57"/>
            <polygon class="cls-59" points="209.52 28.66 182.5 19.86 182.5 19.77 209.52 28.57 209.52 28.66"/>
            <polygon class="cls-56" points="209.52 28.74 182.5 19.94 182.5 19.86 209.52 28.66 209.52 28.74"/>
            <polygon class="cls-58" points="209.52 28.83 182.5 20.03 182.5 19.94 209.52 28.74 209.52 28.83"/>
            <polygon class="cls-60" points="209.52 28.91 182.5 20.11 182.5 20.03 209.52 28.83 209.52 28.91"/>
            <polygon class="cls-61" points="209.52 29 182.5 20.2 182.5 20.11 209.52 28.91 209.52 29"/>
            <polygon class="cls-54" points="209.52 29.08 182.5 20.28 182.5 20.2 209.52 29 209.52 29.08"/>
            <polygon class="cls-53" points="209.52 29.17 182.5 20.37 182.5 20.28 209.52 29.08 209.52 29.17"/>
            <polygon class="cls-92" points="209.52 29.26 182.5 20.45 182.5 20.37 209.52 29.17 209.52 29.26"/>
            <polygon class="cls-91" points="209.52 29.34 182.5 20.54 182.5 20.45 209.52 29.26 209.52 29.34"/>
            <polygon class="cls-89" points="209.52 29.43 182.5 20.62 182.5 20.54 209.52 29.34 209.52 29.43"/>
            <polygon class="cls-88" points="209.52 29.51 182.5 20.71 182.5 20.62 209.52 29.43 209.52 29.51"/>
            <polygon class="cls-62" points="209.52 29.6 182.5 20.8 182.5 20.71 209.52 29.51 209.52 29.6"/>
            <polygon class="cls-63" points="209.52 29.68 182.5 20.88 182.5 20.8 209.52 29.6 209.52 29.68"/>
            <polygon class="cls-64" points="209.52 29.77 182.5 20.97 182.5 20.88 209.52 29.68 209.52 29.77"/>
            <polygon class="cls-67" points="209.52 29.85 182.5 21.05 182.5 20.97 209.52 29.77 209.52 29.85"/>
            <polygon class="cls-68" points="209.52 29.94 182.5 21.14 182.5 21.05 209.52 29.85 209.52 29.94"/>
            <polygon class="cls-121" points="209.52 30.02 182.5 21.22 182.5 21.14 209.52 29.94 209.52 30.02"/>
            <polygon class="cls-120" points="209.52 30.11 182.5 21.31 182.5 21.22 209.52 30.02 209.52 30.11"/>
            <polygon class="cls-106" points="209.52 30.2 182.5 21.39 182.5 21.31 209.52 30.11 209.52 30.2"/>
            <polygon class="cls-104" points="209.52 30.28 182.5 21.48 182.5 21.39 209.52 30.2 209.52 30.28"/>
            <polygon class="cls-113" points="209.52 30.37 182.5 21.56 182.5 21.48 209.52 30.28 209.52 30.37"/>
            <polygon class="cls-145" points="209.52 30.45 182.5 21.65 182.5 21.56 209.52 30.37 209.52 30.45"/>
            <polygon class="cls-101" points="209.52 30.54 182.5 21.74 182.5 21.65 209.52 30.45 209.52 30.54"/>
            <polygon class="cls-105" points="209.52 30.62 182.5 21.82 182.5 21.74 209.52 30.54 209.52 30.62"/>
            <polygon class="cls-128" points="209.52 30.71 182.5 21.91 182.5 21.82 209.52 30.62 209.52 30.71"/>
            <polygon class="cls-132" points="209.52 30.79 182.5 21.99 182.5 21.91 209.52 30.71 209.52 30.79"/>
            <polygon class="cls-194" points="209.52 30.88 182.5 22.08 182.5 21.99 209.52 30.79 209.52 30.88"/>
            <polygon class="cls-214" points="209.52 30.96 182.5 22.16 182.5 22.08 209.52 30.88 209.52 30.96"/>
            <polygon class="cls-187" points="209.52 31.05 182.5 22.25 182.5 22.16 209.52 30.96 209.52 31.05"/>
            <polygon class="cls-212" points="209.52 31.14 182.5 22.33 182.5 22.25 209.52 31.05 209.52 31.14"/>
            <polygon class="cls-213" points="209.52 31.22 182.5 22.42 182.5 22.33 209.52 31.14 209.52 31.22"/>
            <polygon class="cls-206" points="209.52 31.31 182.5 22.51 182.5 22.42 209.52 31.22 209.52 31.31"/>
            <polygon class="cls-171" points="209.52 31.39 182.5 22.59 182.5 22.51 209.52 31.31 209.52 31.39"/>
            <polygon class="cls-167" points="209.52 31.48 182.5 22.68 182.5 22.59 209.52 31.39 209.52 31.48"/>
            <polygon class="cls-168" points="209.52 31.56 182.5 22.76 182.5 22.68 209.52 31.48 209.52 31.56"/>
            <polygon class="cls-159" points="209.52 31.65 182.5 22.85 182.5 22.76 209.52 31.56 209.52 31.65"/>
            <polygon class="cls-185" points="209.52 31.73 182.5 22.93 182.5 22.85 209.52 31.65 209.52 31.73"/>
            <polygon class="cls-226" points="209.52 31.82 182.5 23.02 182.5 22.93 209.52 31.73 209.52 31.82"/>
            <polygon class="cls-221" points="209.52 31.91 182.5 23.1 182.5 23.02 209.52 31.82 209.52 31.91"/>
            <polygon class="cls-225" points="209.52 31.99 182.5 23.19 182.5 23.1 209.52 31.91 209.52 31.99"/>
            <polygon class="cls-225" points="209.52 32.08 182.5 23.27 182.5 23.19 209.52 31.99 209.52 32.08"/>
            <polygon class="cls-233" points="209.52 32.16 182.5 23.36 182.5 23.27 209.52 32.08 209.52 32.16"/>
            <polygon class="cls-232" points="209.52 32.25 182.5 23.44 182.5 23.36 209.52 32.16 209.52 32.25"/>
            <polygon class="cls-224" points="209.52 32.33 182.5 23.53 182.5 23.44 209.52 32.25 209.52 32.33"/>
            <polygon class="cls-223" points="209.52 32.42 182.5 23.61 182.5 23.53 209.52 32.33 209.52 32.42"/>
            <polygon class="cls-222" points="209.52 32.5 182.5 23.7 182.5 23.61 209.52 32.42 209.52 32.5"/>
            <polygon class="cls-220" points="209.52 32.59 182.5 23.78 182.5 23.7 209.52 32.5 209.52 32.59"/>
            <polygon class="cls-235" points="209.52 32.67 182.5 23.87 182.5 23.78 209.52 32.59 209.52 32.67"/>
            <polygon class="cls-234" points="209.52 32.76 182.5 23.95 182.5 23.87 209.52 32.67 209.52 32.76"/>
            <polygon class="cls-227" points="209.52 32.84 182.5 24.04 182.5 23.95 209.52 32.76 209.52 32.84"/>
            <polygon class="cls-228" points="209.52 32.93 182.5 24.12 182.5 24.04 209.52 32.84 209.52 32.93"/>
            <polygon class="cls-230" points="209.52 33.01 182.5 24.21 182.5 24.12 209.52 32.93 209.52 33.01"/>
            <polygon class="cls-231" points="209.52 33.1 182.5 24.29 182.5 24.21 209.52 33.01 209.52 33.1"/>
            <polygon class="cls-229" points="209.52 33.18 182.5 24.38 182.5 24.29 209.52 33.1 209.52 33.18"/>
            <polygon class="cls-181" points="209.45 33.24 182.5 24.46 182.5 24.38 209.52 33.18 209.52 33.24 209.45 33.24"/>
            <polygon class="cls-180" points="209.19 33.24 182.5 24.55 182.5 24.46 209.45 33.24 209.19 33.24"/>
            <polygon class="cls-184" points="208.93 33.24 182.5 24.63 182.5 24.55 209.19 33.24 208.93 33.24"/>
            <polygon class="cls-186" points="208.67 33.24 182.5 24.72 182.5 24.63 208.93 33.24 208.67 33.24"/>
            <polygon class="cls-179" points="208.41 33.24 182.5 24.8 182.5 24.72 208.67 33.24 208.41 33.24"/>
            <polygon class="cls-170" points="208.15 33.24 182.5 24.89 182.5 24.8 208.41 33.24 208.15 33.24"/>
            <polygon class="cls-169" points="207.89 33.24 182.5 24.97 182.5 24.89 208.15 33.24 207.89 33.24"/>
            <polygon class="cls-174" points="207.62 33.24 182.5 25.06 182.5 24.97 207.89 33.24 207.62 33.24"/>
            <polygon class="cls-172" points="207.36 33.24 182.5 25.14 182.5 25.06 207.62 33.24 207.36 33.24"/>
            <polygon class="cls-175" points="207.1 33.24 182.5 25.23 182.5 25.14 207.36 33.24 207.1 33.24"/>
            <polygon class="cls-173" points="206.84 33.24 182.5 25.31 182.5 25.23 207.1 33.24 206.84 33.24"/>
            <polygon class="cls-160" points="206.58 33.24 182.5 25.4 182.5 25.31 206.84 33.24 206.58 33.24"/>
            <polygon class="cls-156" points="206.32 33.24 182.5 25.48 182.5 25.4 206.58 33.24 206.32 33.24"/>
            <polygon class="cls-158" points="206.06 33.24 182.5 25.57 182.5 25.48 206.32 33.24 206.06 33.24"/>
            <polygon class="cls-155" points="205.8 33.24 182.5 25.65 182.5 25.57 206.06 33.24 205.8 33.24"/>
            <polygon class="cls-157" points="205.54 33.24 182.5 25.74 182.5 25.65 205.8 33.24 205.54 33.24"/>
            <polygon class="cls-161" points="205.28 33.24 182.5 25.82 182.5 25.74 205.54 33.24 205.28 33.24"/>
            <polygon class="cls-163" points="205.02 33.24 182.5 25.91 182.5 25.82 205.28 33.24 205.02 33.24"/>
            <polygon class="cls-162" points="204.75 33.24 182.5 25.99 182.5 25.91 205.02 33.24 204.75 33.24"/>
            <polygon class="cls-166" points="204.49 33.24 182.5 26.08 182.5 25.99 204.75 33.24 204.49 33.24"/>
            <polygon class="cls-164" points="204.23 33.24 182.5 26.16 182.5 26.08 204.49 33.24 204.23 33.24"/>
            <polygon class="cls-165" points="203.97 33.24 182.5 26.25 182.5 26.16 204.23 33.24 203.97 33.24"/>
            <polygon class="cls-178" points="203.71 33.24 182.5 26.33 182.5 26.25 203.97 33.24 203.71 33.24"/>
            <polygon class="cls-183" points="203.45 33.24 182.5 26.42 182.5 26.33 203.71 33.24 203.45 33.24"/>
            <polygon class="cls-182" points="203.19 33.24 182.5 26.5 182.5 26.42 203.45 33.24 203.19 33.24"/>
            <polygon class="cls-177" points="202.93 33.24 182.5 26.59 182.5 26.5 203.19 33.24 202.93 33.24"/>
            <polygon class="cls-176" points="202.67 33.24 182.5 26.67 182.5 26.59 202.93 33.24 202.67 33.24"/>
            <polygon class="cls-203" points="202.41 33.24 182.5 26.76 182.5 26.67 202.67 33.24 202.41 33.24"/>
            <polygon class="cls-204" points="202.15 33.24 182.5 26.84 182.5 26.76 202.41 33.24 202.15 33.24"/>
            <polygon class="cls-202" points="201.88 33.24 182.5 26.93 182.5 26.84 202.15 33.24 201.88 33.24"/>
            <polygon class="cls-201" points="201.62 33.24 182.5 27.01 182.5 26.93 201.88 33.24 201.62 33.24"/>
            <polygon class="cls-200" points="201.36 33.24 182.5 27.1 182.5 27.01 201.62 33.24 201.36 33.24"/>
            <polygon class="cls-210" points="201.1 33.24 182.5 27.18 182.5 27.1 201.36 33.24 201.1 33.24"/>
            <polygon class="cls-211" points="200.84 33.24 182.5 27.27 182.5 27.18 201.1 33.24 200.84 33.24"/>
            <polygon class="cls-208" points="200.58 33.24 182.5 27.35 182.5 27.27 200.84 33.24 200.58 33.24"/>
            <polygon class="cls-205" points="200.32 33.24 182.5 27.44 182.5 27.35 200.58 33.24 200.32 33.24"/>
            <polygon class="cls-207" points="200.06 33.24 182.5 27.52 182.5 27.44 200.32 33.24 200.06 33.24"/>
            <polygon class="cls-209" points="199.8 33.24 182.5 27.61 182.5 27.52 200.06 33.24 199.8 33.24"/>
            <polygon class="cls-197" points="199.54 33.24 182.5 27.69 182.5 27.61 199.8 33.24 199.54 33.24"/>
            <polygon class="cls-199" points="199.28 33.24 182.5 27.78 182.5 27.69 199.54 33.24 199.28 33.24"/>
            <polygon class="cls-198" points="199.01 33.24 182.5 27.86 182.5 27.78 199.28 33.24 199.01 33.24"/>
            <polygon class="cls-195" points="198.75 33.24 182.5 27.95 182.5 27.86 199.01 33.24 198.75 33.24"/>
            <polygon class="cls-196" points="198.49 33.24 182.5 28.03 182.5 27.95 198.75 33.24 198.49 33.24"/>
            <polygon class="cls-190" points="198.23 33.24 182.5 28.12 182.5 28.03 198.49 33.24 198.23 33.24"/>
            <polygon class="cls-189" points="197.97 33.24 182.5 28.2 182.5 28.12 198.23 33.24 197.97 33.24"/>
            <polygon class="cls-188" points="197.71 33.24 182.5 28.29 182.5 28.2 197.97 33.24 197.71 33.24"/>
            <polygon class="cls-193" points="197.45 33.24 182.5 28.37 182.5 28.29 197.71 33.24 197.45 33.24"/>
            <polygon class="cls-192" points="197.19 33.24 182.5 28.46 182.5 28.37 197.45 33.24 197.19 33.24"/>
            <polygon class="cls-191" points="196.93 33.24 182.5 28.54 182.5 28.46 197.19 33.24 196.93 33.24"/>
            <polygon class="cls-219" points="196.67 33.24 182.5 28.63 182.5 28.54 196.93 33.24 196.67 33.24"/>
            <polygon class="cls-217" points="196.41 33.24 182.5 28.71 182.5 28.63 196.67 33.24 196.41 33.24"/>
            <polygon class="cls-216" points="196.14 33.24 182.5 28.8 182.5 28.71 196.41 33.24 196.14 33.24"/>
            <polygon class="cls-218" points="195.88 33.24 182.5 28.88 182.5 28.8 196.14 33.24 195.88 33.24"/>
            <polygon class="cls-215" points="195.62 33.24 182.5 28.97 182.5 28.88 195.88 33.24 195.62 33.24"/>
            <polygon class="cls-125" points="195.36 33.24 182.5 29.05 182.5 28.97 195.62 33.24 195.36 33.24"/>
            <polygon class="cls-122" points="195.1 33.24 182.5 29.14 182.5 29.05 195.36 33.24 195.1 33.24"/>
            <polygon class="cls-124" points="194.84 33.24 182.5 29.22 182.5 29.14 195.1 33.24 194.84 33.24"/>
            <polygon class="cls-123" points="194.58 33.24 182.5 29.31 182.5 29.22 194.84 33.24 194.58 33.24"/>
            <polygon class="cls-126" points="194.32 33.24 182.5 29.39 182.5 29.31 194.58 33.24 194.32 33.24"/>
            <polygon class="cls-129" points="194.06 33.24 182.5 29.48 182.5 29.39 194.32 33.24 194.06 33.24"/>
            <polygon class="cls-136" points="193.8 33.24 182.5 29.56 182.5 29.48 194.06 33.24 193.8 33.24"/>
            <polygon class="cls-130" points="193.54 33.24 182.5 29.65 182.5 29.56 193.8 33.24 193.54 33.24"/>
            <polygon class="cls-131" points="193.27 33.24 182.5 29.73 182.5 29.65 193.54 33.24 193.27 33.24"/>
            <polygon class="cls-137" points="193.01 33.24 182.5 29.82 182.5 29.73 193.27 33.24 193.01 33.24"/>
            <polygon class="cls-128" points="192.75 33.24 182.5 29.9 182.5 29.82 193.01 33.24 192.75 33.24"/>
            <polygon class="cls-142" points="192.49 33.24 182.5 29.99 182.5 29.9 192.75 33.24 192.49 33.24"/>
            <polygon class="cls-141" points="192.23 33.24 182.5 30.07 182.5 29.99 192.49 33.24 192.23 33.24"/>
            <polygon class="cls-135" points="191.97 33.24 182.5 30.16 182.5 30.07 192.23 33.24 191.97 33.24"/>
            <polygon class="cls-133" points="191.71 33.24 182.5 30.24 182.5 30.16 191.97 33.24 191.71 33.24"/>
            <polygon class="cls-134" points="191.45 33.24 182.5 30.33 182.5 30.24 191.71 33.24 191.45 33.24"/>
            <polygon class="cls-96" points="191.19 33.24 182.5 30.41 182.5 30.33 191.45 33.24 191.19 33.24"/>
            <polygon class="cls-99" points="190.93 33.24 182.5 30.5 182.5 30.41 191.19 33.24 190.93 33.24"/>
            <polygon class="cls-97" points="190.67 33.24 182.5 30.58 182.5 30.5 190.93 33.24 190.67 33.24"/>
            <polygon class="cls-100" points="190.4 33.24 182.5 30.67 182.5 30.58 190.67 33.24 190.4 33.24"/>
            <polygon class="cls-98" points="190.14 33.24 182.5 30.75 182.5 30.67 190.4 33.24 190.14 33.24"/>
            <polygon class="cls-127" points="189.88 33.24 182.5 30.84 182.5 30.75 190.14 33.24 189.88 33.24"/>
            <polygon class="cls-138" points="189.62 33.24 182.5 30.92 182.5 30.84 189.88 33.24 189.62 33.24"/>
            <polygon class="cls-139" points="189.36 33.24 182.5 31.01 182.5 30.92 189.62 33.24 189.36 33.24"/>
            <polygon class="cls-140" points="189.1 33.24 182.5 31.09 182.5 31.01 189.36 33.24 189.1 33.24"/>
            <polygon class="cls-143" points="188.84 33.24 182.5 31.18 182.5 31.09 189.1 33.24 188.84 33.24"/>
            <polygon class="cls-144" points="188.58 33.24 182.5 31.26 182.5 31.18 188.84 33.24 188.58 33.24"/>
            <polygon class="cls-110" points="188.32 33.24 182.5 31.35 182.5 31.26 188.58 33.24 188.32 33.24"/>
            <polygon class="cls-109" points="188.06 33.24 182.5 31.43 182.5 31.35 188.32 33.24 188.06 33.24"/>
            <polygon class="cls-108" points="187.8 33.24 182.5 31.52 182.5 31.43 188.06 33.24 187.8 33.24"/>
            <polygon class="cls-111" points="187.53 33.24 182.5 31.6 182.5 31.52 187.8 33.24 187.53 33.24"/>
            <polygon class="cls-107" points="187.27 33.24 182.5 31.69 182.5 31.6 187.53 33.24 187.27 33.24"/>
            <polygon class="cls-115" points="187.01 33.24 182.5 31.77 182.5 31.69 187.27 33.24 187.01 33.24"/>
            <polygon class="cls-114" points="186.75 33.24 182.5 31.86 182.5 31.77 187.01 33.24 186.75 33.24"/>
            <polygon class="cls-118" points="186.49 33.24 182.5 31.94 182.5 31.86 186.75 33.24 186.49 33.24"/>
            <polygon class="cls-117" points="186.23 33.24 182.5 32.03 182.5 31.94 186.49 33.24 186.23 33.24"/>
            <polygon class="cls-119" points="185.97 33.24 182.5 32.11 182.5 32.03 186.23 33.24 185.97 33.24"/>
            <polygon class="cls-116" points="185.71 33.24 182.5 32.2 182.5 32.11 185.97 33.24 185.71 33.24"/>
            <polygon class="cls-102" points="185.45 33.24 182.5 32.28 182.5 32.2 185.71 33.24 185.45 33.24"/>
            <polygon class="cls-112" points="185.19 33.24 182.5 32.37 182.5 32.28 185.45 33.24 185.19 33.24"/>
            <polygon class="cls-103" points="184.92 33.24 182.5 32.45 182.5 32.37 185.19 33.24 184.92 33.24"/>
            <polygon class="cls-103" points="182.5 32.45 184.92 33.24 182.5 33.24 182.5 32.45"/>
          </g>
          <path class="cls-280" d="m208.33,33.48h-24.65c-.78,0-1.42-.64-1.42-1.42V15.94c0-.78.64-1.42,1.42-1.42h24.65c.78,0,1.42.64,1.42,1.42v16.12c0,.78-.64,1.42-1.42,1.42Zm-24.65-18.49c-.52,0-.95.43-.95.95v16.12c0,.52.43.95.95.95h24.65c.52,0,.95-.43.95-.95V15.94c0-.52-.43-.95-.95-.95h-24.65Z"/>
        </g>
        <path class="cls-3" d="m192.61,23.72h3.72c-.03-.8-.22-1.63-.79-2.17-.68-.63-1.86-.87-2.92-.87s-2.32.26-3,.94c-.59.59-.71,1.53-.71,2.38s.25,1.92.89,2.52c.68.63,1.77.8,2.83.8s2.14-.19,2.82-.79c.67-.6.9-1.61.9-2.53h0s-3.73,0-3.73,0v-.28Zm3.97.28v3.17h5.18c.76-.05,1.36-.73,1.36-1.57s-.6-1.57-1.36-1.61h0s-5.18,0-5.18,0Zm5.12-3.18c.74,0,1.32.64,1.32,1.45,0,.77-.54,1.39-1.22,1.46h-5.22v-2.91h4.96s.07,0,.1,0c.02,0,.04,0,.06,0Z"/>
      </g>
    </g>
    <g>
      <path class="cls-4" d="m177.01,24c0,13.25-10.75,24-24,24s-24-10.75-24-24S139.75,0,153.01,0s24,10.75,24,24Zm-24,21.54c11.9,0,21.54-9.64,21.54-21.54s-9.64-21.54-21.54-21.54-21.54,9.64-21.54,21.54,9.64,21.54,21.54,21.54Z"/>
      <path class="cls-5" d="m175.21,24c0,12.26-9.94,22.2-22.2,22.2s-22.2-9.94-22.2-22.2S140.75,1.8,153.01,1.8s22.2,9.94,22.2,22.2Z"/>
      <g>
        <path class="cls-13" d="m140.65,15.17h24.72c.78,0,1.41.63,1.41,1.41v14.83c0,.78-.63,1.41-1.41,1.41h-24.72c-.78,0-1.41-.63-1.41-1.41v-14.83c0-.78.63-1.41,1.41-1.41Z"/>
        <path class="cls-281" d="m139.24,23.49h1.32l.3-.69h.67l.3.69h2.6v-.53l.23.53h1.35l.23-.54v.53h6.47v-1.13s.12,0,.12,0c.09,0,.11.01.11.15v.98h3.34v-.26c.27.14.69.26,1.24.26h1.41l.3-.69h.67l.29.69h2.71v-.65l.41.65h2.17v-4.33h-2.15v.51l-.3-.51h-2.21v.51l-.28-.51h-2.98c-.5,0-.94.07-1.29.25v-.25h-2.06v.25c-.23-.19-.53-.25-.87-.25h-7.51l-.5,1.12-.52-1.12h-2.37v.51l-.26-.51h-2.02l-.94,2.06v2.27h0Zm8.35-.62h-.79v-2.43s-1.13,2.43-1.13,2.43h-.68l-1.13-2.43v2.43h-1.57l-.3-.69h-1.61l-.3.69h-.84l1.39-3.1h1.15l1.32,2.94v-2.94h1.26l1.01,2.1.93-2.1h1.29v3.1Zm-5.86-1.34l-.53-1.24-.53,1.24h1.06Zm9.02,1.34h-2.59v-3.1h2.59v.65h-1.81v.56h1.77v.64h-1.77v.62h1.81v.64Zm3.64-2.27c0,.49-.34.75-.55.83.17.06.31.17.38.26.11.15.13.29.13.57v.61h-.78v-.39c0-.19.02-.46-.13-.6-.11-.11-.29-.13-.56-.13h-.83v1.13h-.77v-3.1h1.78c.4,0,.69,0,.94.15.24.14.39.34.39.69h0Zm-.98.46c-.11.06-.23.06-.38.06h-.94v-.69h.95c.13,0,.28,0,.37.06.1.05.16.14.16.27s-.06.24-.16.29Zm2.22,1.81h-.79v-3.1h.79v3.1Zm9.17,0h-1.1l-1.47-2.33v2.33h-1.58l-.3-.69h-1.61l-.29.69h-.91c-.38,0-.85-.08-1.12-.34-.27-.26-.41-.62-.41-1.18,0-.46.08-.88.42-1.21.25-.25.64-.36,1.18-.36h.75v.66h-.73c-.28,0-.44.04-.6.18-.13.13-.22.38-.22.7s.07.57.21.73c.12.12.34.16.54.16h.35l1.09-2.44h1.16l1.31,2.93v-2.93h1.18l1.36,2.16v-2.16h.79v3.1Zm-4.7-1.34l-.54-1.24-.53,1.24h1.07Zm6.68,6.29c-.19.26-.55.4-1.05.4h-1.49v-.67h1.49c.15,0,.25-.02.31-.08.06-.05.09-.13.09-.2,0-.09-.04-.16-.09-.21-.06-.05-.14-.07-.27-.07-.73-.02-1.63.02-1.63-.96,0-.45.3-.92,1.11-.92h1.54v-.62h-1.43c-.43,0-.75.1-.97.25v-.25h-2.12c-.34,0-.74.08-.92.25v-.25h-3.78v.25c-.3-.21-.81-.25-1.04-.25h-2.5v.25c-.24-.22-.77-.25-1.09-.25h-2.79l-.64.66-.6-.66h-4.17v4.33h4.09l.66-.67.62.67h2.52s0-1.02,0-1.02h.25c.33,0,.73,0,1.08-.15v1.17h2.08v-1.13h.1c.13,0,.14,0,.14.13v1h6.32c.4,0,.82-.1,1.05-.28v.28h2.01c.42,0,.82-.06,1.13-.2v-.81s0,0,0,0Zm-12.53-1.67c0,.86-.67,1.04-1.35,1.04h-.97v1.04h-1.5l-.95-1.03-.99,1.03h-3.07v-3.1h3.11l.95,1.02.98-1.02h2.47c.61,0,1.3.16,1.3,1.02Zm-6.15,1.43h-1.9v-.62h1.7v-.63h-1.7v-.56h1.94l.85.9-.88.91Zm3.07.36l-1.19-1.26,1.19-1.22v2.49Zm1.76-1.38h-1v-.79h1.01c.28,0,.47.11.47.38s-.18.41-.48.41Zm5.24-1.43h2.58v.64h-1.81v.56h1.77v.63h-1.77v.62h1.81v.65h-2.58v-3.1Zm-.99,1.66c.17.06.31.17.38.26.11.15.13.29.13.57v.62h-.78v-.39c0-.19.02-.46-.13-.61-.11-.11-.29-.14-.57-.14h-.83v1.13h-.78v-3.1h1.79c.39,0,.68.02.93.15.24.14.4.34.4.69,0,.5-.34.75-.55.83h0Zm-.44-.39c-.1.06-.23.06-.38.06h-.94v-.7h.95c.14,0,.28,0,.37.06.1.05.16.15.16.28s-.06.24-.16.3h0Zm6.99.2c.15.15.23.34.23.66,0,.67-.44.98-1.22.98h-1.51v-.67h1.5c.15,0,.25-.02.32-.08.05-.05.09-.12.09-.2,0-.09-.04-.16-.09-.21-.06-.05-.14-.07-.28-.07-.72-.02-1.63.02-1.63-.96,0-.45.3-.92,1.11-.92h1.55v.66h-1.42c-.14,0-.23,0-.31.06-.08.05-.12.12-.12.22,0,.12.07.2.17.23.08.03.17.04.3.04h.42c.42.02.71.09.88.26h0Zm3.07-.83h-1.41c-.14,0-.23,0-.31.06-.08.05-.11.12-.11.22,0,.12.07.2.17.23.08.03.17.04.3.04h.42c.42.02.71.09.88.26.03.02.05.05.07.08v-.88h0Z"/>
      </g>
    </g>
    <g>
      <path class="cls-4" d="m134.01,24c0,13.25-10.75,24-24,24s-24-10.75-24-24S96.75,0,110.01,0s24,10.75,24,24Zm-24,21.54c11.9,0,21.54-9.64,21.54-21.54S121.9,2.46,110.01,2.46s-21.54,9.64-21.54,21.54,9.64,21.54,21.54,21.54Z"/>
      <g>
        <path class="cls-4" d="m110.01,45.54c11.9,0,21.54-9.64,21.54-21.54S121.9,2.46,110.01,2.46s-21.54,9.64-21.54,21.54,9.64,21.54,21.54,21.54Z"/>
        <path class="cls-14" d="m131.61,24c0,11.93-9.67,21.61-21.61,21.61s-21.61-9.67-21.61-21.61S98.07,2.39,110.01,2.39s21.61,9.67,21.61,21.61Z"/>
        <path class="cls-276" d="m113.37,17.5h-6.93v12.04h6.93v-12.04Z"/>
        <path class="cls-283" d="m106.87,23.52c0-2.44,1.19-4.62,3.01-6.02-1.34-1.02-3.03-1.64-4.88-1.64-4.38,0-7.92,3.42-7.92,7.66s3.54,7.66,7.92,7.66c1.85,0,3.54-.62,4.89-1.64-1.83-1.39-3.02-3.58-3.02-6.02Z"/>
        <path class="cls-284" d="m122.72,23.52c0,4.23-3.54,7.66-7.92,7.66-1.85,0-3.54-.62-4.89-1.64,1.85-1.41,3.01-3.57,3.01-6.02s-1.19-4.62-3.01-6.02c1.35-1.02,3.04-1.64,4.89-1.64,4.38,0,7.92,3.45,7.92,7.66Z"/>
      </g>
    </g>
    <g>
      <path class="cls-4" d="m91,24c0,13.25-10.75,24-24,24s-24-10.75-24-24S53.75,0,67,0s24,10.75,24,24Zm-24,21.54c11.9,0,21.54-9.64,21.54-21.54S78.9,2.46,67,2.46s-21.54,9.64-21.54,21.54,9.64,21.54,21.54,21.54Z"/>
      <g>
        <path class="cls-4" d="m67,45.54c11.9,0,21.54-9.64,21.54-21.54S78.9,2.46,67,2.46s-21.54,9.64-21.54,21.54,9.64,21.54,21.54,21.54Z"/>
        <path class="cls-245" d="m89.2,24c0,12.26-9.94,22.2-22.2,22.2s-22.2-9.94-22.2-22.2S54.74,1.8,67,1.8s22.2,9.94,22.2,22.2Z"/>
        <path class="cls-281" d="m67.58,22.1c-.02,1.47,1.34,2.29,2.37,2.77,1.05.5,1.41.82,1.4,1.27,0,.68-.84.98-1.62,1-1.36.02-2.15-.36-2.78-.64l-.49,2.23c.63.28,1.8.53,3.01.54,2.85,0,4.7-1.37,4.71-3.48.01-2.69-3.82-2.84-3.79-4.04,0-.36.37-.75,1.15-.85.92-.08,1.84.07,2.67.46l.48-2.16c-.81-.3-1.67-.45-2.53-.45-2.68,0-4.56,1.38-4.57,3.37Zm11.68-3.18c-.25,0-.49.07-.69.2-.21.13-.36.32-.46.55l-4.06,9.44h2.85l.57-1.52h3.47l.33,1.52h2.5l-2.19-10.19h-2.31Zm.4,2.75l.82,3.82h-2.24l1.43-3.82h0Zm-15.52-2.75l-2.24,10.19h2.71l2.24-10.19h-2.71Zm-4,0l-2.82,6.93-1.14-5.9c-.14-.66-.66-1.04-1.25-1.04h-4.61l-.06.3c.95.2,2.02.52,2.67.87.4.21.51.39.64.89l2.16,8.13h2.86l4.39-10.19h-2.85"/>
      </g>
    </g>
    <g>
      <path class="cls-4" d="m48,24c0,13.25-10.75,24-24,24S0,37.25,0,24,10.75,0,24,0s24,10.75,24,24Zm-24,21.54c11.9,0,21.54-9.64,21.54-21.54S35.9,2.46,24,2.46,2.46,12.1,2.46,24s9.64,21.54,21.54,21.54Z"/>
      <g>
        <path class="cls-282" d="m46.2,24c0,12.26-9.94,22.2-22.2,22.2S1.8,36.26,1.8,24,11.74,1.8,24,1.8s22.2,9.94,22.2,22.2Z"/>
        <g>
          <rect class="cls-40" x="16.53" y="11.05" width="14.93" height="25.89" rx="2.1" ry="2.1"/>
          <rect class="cls-281" x="17.72" y="13.15" width="12.56" height="21.69"/>
          <rect class="cls-281" x="22.72" y="11.79" width="2.56" height=".44" rx=".22" ry=".22"/>
          <rect class="cls-281" x="22.72" y="35.64" width="2.56" height=".44" rx=".22" ry=".22"/>
          <rect class="cls-281" x="23.68" y="12.56" width=".63" height=".22" rx=".11" ry=".11" transform="translate(48 25.34) rotate(180)"/>
        </g>
        <g>
          <g>
            <rect class="cls-90" x="24.25" y="15.15" width="9.08" height="15.62" transform="translate(39.07 -12.4) rotate(67.64)"/>
            <rect class="cls-264" x="24.86" y="15.81" width="7.85" height="14.3" transform="translate(39.07 -12.4) rotate(67.64)"/>
            <ellipse class="cls-90" cx="33.66" cy="17.17" rx="1.1" ry="1.04" transform="translate(-4 14.1) rotate(-22.36)"/>
            <ellipse class="cls-90" cx="36.32" cy="23.64" rx="1.1" ry="1.04" transform="translate(-6.26 15.59) rotate(-22.36)"/>
            <ellipse class="cls-90" cx="21.25" cy="22.28" rx="1.1" ry="1.04" transform="translate(-6.88 9.76) rotate(-22.36)"/>
            <ellipse class="cls-90" cx="23.91" cy="28.74" rx="1.1" ry="1.04" transform="translate(-9.14 11.26) rotate(-22.36)"/>
          </g>
          <g>
            <rect class="cls-90" x="27.24" y="15.73" width="9.08" height="15.62" transform="translate(41.46 -14.8) rotate(67.64)"/>
            <rect class="cls-264" x="27.85" y="16.39" width="7.85" height="14.3" transform="translate(41.46 -14.8) rotate(67.64)"/>
            <ellipse class="cls-90" cx="36.65" cy="17.75" rx="1.1" ry="1.04" transform="translate(-4 15.28) rotate(-22.36)"/>
            <ellipse class="cls-90" cx="39.31" cy="24.22" rx="1.1" ry="1.04" transform="translate(-6.26 16.77) rotate(-22.36)"/>
            <ellipse class="cls-90" cx="24.24" cy="22.86" rx="1.1" ry="1.04" transform="translate(-6.87 10.94) rotate(-22.36)"/>
            <ellipse class="cls-90" cx="26.9" cy="29.32" rx="1.1" ry="1.04" transform="translate(-9.13 12.44) rotate(-22.36)"/>
          </g>
        </g>
        <g>
          <path class="cls-277" d="m31.82,21.85c.98-.01,1.8.8,1.79,1.81,0,.98-.82,1.78-1.81,1.77-1,0-1.78-.83-1.77-1.81,0-.98.82-1.78,1.79-1.77Zm1.35,1.8c.01-.75-.59-1.36-1.34-1.36-.76,0-1.35.58-1.35,1.35,0,.76.58,1.32,1.3,1.35.79.03,1.4-.61,1.39-1.34Z"/>
          <path class="cls-278" d="m33.16,23.65c0,.72-.6,1.36-1.39,1.34-.72-.03-1.3-.59-1.3-1.35,0-.77.59-1.35,1.35-1.35.75,0,1.35.61,1.34,1.36Zm-1.4.11c.06,0,.13-.01.21,0,.11.03.13.13.05.21-.07.07-.16.1-.26.11-.06,0-.14,0-.17.03-.04.04,0,.11.01.17,0,0,0,0,0,.01,0,.05.03.07.07.06.07-.01.13-.02.2-.04.11-.03.11-.03.15.08.01.02,0,.07.04.06.06,0,.12-.03.16-.07.03-.03-.01-.07-.03-.1-.03-.06-.04-.1.03-.16.14-.11.18-.29.13-.43-.06-.16-.19-.24-.38-.24-.1,0-.19,0-.29,0-.05,0-.11-.02-.12-.08-.01-.06.01-.11.07-.14.09-.05.19-.08.29-.08.04,0,.06-.02.05-.06,0-.17-.05-.21-.21-.17-.02,0-.03,0-.05.02-.06.03-.09,0-.11-.05-.04-.1-.04-.1-.14-.05-.01,0-.02.01-.03.02-.05.01-.05.04-.03.08.06.09.05.16-.04.22,0,0,0,0-.01.01-.17.19-.11.47.12.56.09.03.18.02.29.03Z"/>
          <path class="cls-277" d="m31.77,23.76c-.11,0-.2,0-.29-.03-.23-.09-.29-.37-.12-.56,0,0,0,0,.01-.01.09-.06.1-.13.04-.22-.02-.04-.02-.06.03-.08.01,0,.02-.01.03-.02.1-.05.1-.05.14.05.02.06.05.08.11.05.02,0,.03-.01.05-.02.17-.04.21,0,.21.17,0,.04-.01.06-.05.06-.1,0-.2.03-.29.08-.06.03-.09.08-.07.14.01.06.07.08.12.08.1,0,.19,0,.29,0,.19,0,.32.08.38.24.06.15.01.32-.13.43-.07.05-.06.09-.03.16.02.03.06.07.03.1-.04.04-.1.06-.16.07-.03,0-.03-.04-.04-.06-.05-.1-.05-.1-.15-.08-.06.02-.13.03-.2.04-.04,0-.07,0-.07-.06,0,0,0,0,0-.01,0-.06-.05-.13-.01-.17.03-.03.11-.02.17-.03.1-.01.19-.04.26-.11.08-.08.06-.17-.05-.21-.08-.02-.15,0-.21,0Z"/>
        </g>
      </g>
    </g>
  </g>
</svg>